#!OML:ASF H:\LiuWeirdWalks\Patient Classification 1\Patient 1\Session 1\male.ASF
:FULLY-SPECIFIED
:DEGREES
205
root 0.898131 17.4143 -8.74761 8.23229 7.64963 5.55782
lowerback 6.8838 -2.94504 -7.20495
upperback -1.3647 -4.45692 2.21631
thorax -4.56957 -1.98324 6.83643
lowerneck -20.3706 -0.613789 4.17625
upperneck 20.2114 -0.730455 -5.92512
head 9.72713 -0.71808 -2.87742
rclavicle -2.72335e-014 -1.27222e-014
rhumerus -52.1967 -20.823 -54.5351
rradius 17.6852
rwrist 4.63191
rhand -16.4803 -3.65733
rfingers 7.12502
rthumb 9.73674 -33.4123
lclavicle -2.72335e-014 -1.27222e-014
lhumerus -35.2243 6.30416 79.9133
lradius 30.618
lwrist 9.75439
lhand -17.2327 -4.69632
lfingers 7.12502
lthumb 9.0108 25.0912
rfemur -42.373 -3.94343 16.5376
rtibia 38.6204
rfoot -8.11257 -18.4106
rtoes -10.1729
lfemur 19.5676 -4.12644 -23.6717
ltibia 15.8885
lfoot 18.9068 -0.326187
ltoes -30.2827
206
root 0.900925 17.4478 -8.44007 8.01007 7.50689 5.07982
lowerback 6.81268 -2.8736 -6.72642
upperback -1.38193 -4.30928 2.34097
thorax -4.59521 -1.91993 6.68137
lowerneck -20.393 -0.538823 4.33674
upperneck 20.1976 -0.628422 -6.1297
head 9.73072 -0.682765 -2.96256
rclavicle -1.26228e-014 1.11319e-014
rhumerus -52.3723 -21.5324 -53.7571
rradius 17.1266
rwrist 5.78464
rhand -16.5677 -3.70298
rfingers 7.12502
rthumb 9.65249 -33.4618
lclavicle -1.26228e-014 1.11319e-014
lhumerus -35.3468 6.82447 79.7606
lradius 30.5524
lwrist 9.62801
lhand -17.598 -4.90691
lfingers 7.12502
lthumb 8.65828 24.8955
rfemur -41.5556 -3.91659 17.2413
rtibia 39.3544
rfoot -8.03534 -18.7753
rtoes -9.15659
lfemur 17.6955 -4.01223 -23.0485
ltibia 19.9477
lfoot 22.1452 -1.15142
ltoes -26.857
207
root 0.903209 17.4812 -8.13623 7.76874 7.38681 4.71695
lowerback 6.75783 -2.79821 -6.37416
upperback -1.35932 -4.16944 2.43556
thorax -4.57912 -1.86045 6.56554
lowerneck -20.4304 -0.478065 4.46847
upperneck 20.1936 -0.547796 -6.29098
head 9.73985 -0.654633 -3.03107
rclavicle 2.18663e-015 -5.56597e-015
rhumerus -52.4669 -22.3201 -53.0026
rradius 16.5847
rwrist 6.98792
rhand -16.6244 -3.81296
rfingers 7.12502
rthumb 9.59773 -33.5743
lclavicle 2.18663e-015 -5.56597e-015
lhumerus -35.4409 7.19014 79.6827
lradius 30.4652
lwrist 9.70596
lhand -18.0012 -5.02831
lfingers 7.12502
lthumb 8.26914 24.7899
rfemur -40.6177 -4.06013 17.8564
rtibia 39.9833
rfoot -8.26579 -18.6983
rtoes -8.145
lfemur 15.8019 -3.78714 -22.5032
ltibia 23.9728
lfoot 25.3767 -2.02991
ltoes -23.0475
208
root 0.904771 17.5147 -7.8348 7.48642 7.28591 4.4383
lowerback 6.71909 -2.71089 -6.12214
upperback -1.28751 -4.02375 2.50906
thorax -4.51527 -1.79886 6.48235
lowerneck -20.4798 -0.446027 4.54241
upperneck 20.2251 -0.506377 -6.37673
head 9.762 -0.640338 -3.06973
rclavicle 3.33958e-014 -9.54166e-015
rhumerus -52.5059 -23.2076 -52.2468
rradius 16.0729
rwrist 8.25511
rhand -16.6285 -3.87684
rfingers 7.12502
rthumb 9.59376 -33.6384
lclavicle 3.33958e-014 -9.54166e-015
lhumerus -35.485 7.36479 79.7038
lradius 30.368
lwrist 9.97426
lhand -18.3855 -5.0016
lfingers 7.12502
lthumb 7.89826 24.8308
rfemur -39.5384 -4.29695 18.3801
rtibia 40.4908
rfoot -8.73584 -18.3555
rtoes -7.15549
lfemur 13.9101 -3.44295 -22.0154
ltibia 27.9891
lfoot 28.2244 -2.80698
ltoes -19.4742
209
root 0.905567 17.5483 -7.53642 7.16723 7.20839 4.17842
lowerback 6.71127 -2.60888 -5.90076
upperback -1.19151 -3.86297 2.57966
thorax -4.44334 -1.72964 6.41321
lowerneck -20.5837 -0.44905 4.52561
upperneck 20.348 -0.506967 -6.36654
head 9.82466 -0.64179 -3.06829
rclavicle 2.85256e-014 1.82882e-014
rhumerus -52.5044 -24.0692 -51.5869
rradius 15.6387
rwrist 9.41018
rhand -16.5807 -3.90932
rfingers 7.12502
rthumb 9.63991 -33.6688
lclavicle 2.85256e-014 1.82882e-014
lhumerus -35.5032 7.32183 79.8341
lradius 30.2662
lwrist 10.4006
lhand -18.7099 -4.88623
lfingers 7.12502
lthumb 7.58515 24.9578
rfemur -38.324 -4.55466 18.8558
rtibia 40.8512
rfoot -9.36998 -17.9426
rtoes -6.17383
lfemur 12.005 -2.99861 -21.531
ltibia 32.0041
lfoot 30.2502 -3.3409
ltoes -16.6209
210
root 0.905895 17.582 -7.24053 6.80182 7.14741 3.83063
lowerback 6.73518 -2.48722 -5.59229
upperback -1.0806 -3.66928 2.67293
thorax -4.38161 -1.64564 6.31716
lowerneck -20.6787 -0.480314 4.4585
upperneck 20.5155 -0.539106 -6.31453
head 9.90001 -0.656624 -3.04903
rclavicle -7.11649e-014 2.46493e-014
rhumerus -52.462 -24.8194 -51.1018
rradius 15.3135
rwrist 10.335
rhand -16.4896 -3.94019
rfingers 7.12502
rthumb 9.72782 -33.6955
lclavicle -7.11649e-014 2.46493e-014
lhumerus -35.5035 7.05494 80.0728
lradius 30.1811
lwrist 10.95
lhand -18.9117 -4.59632
lfingers 7.12502
lthumb 7.39041 25.2546
rfemur -36.9642 -4.74742 19.3826
rtibia 41.0406
rfoot -10.0752 -17.6454
rtoes -5.25318
lfemur 10.1017 -2.45631 -20.9465
ltibia 36.0007
lfoot 31.0337 -3.58655
ltoes -14.8845
211
root 0.905713 17.6157 -6.9473 6.40143 7.10502 3.29238
lowerback 6.79154 -2.35094 -5.08675
upperback -0.973307 -3.43899 2.81396
thorax -4.35413 -1.54589 6.15827
lowerneck -20.7565 -0.527886 4.38964
upperneck 20.6654 -0.586473 -6.2904
head 9.96507 -0.681766 -3.04083
rclavicle 4.56211e-014 -1.35174e-014
rhumerus -52.3518 -25.3797 -50.8718
rradius 15.1025
rwrist 10.9299
rhand -16.3715 -3.96445
rfingers 7.12502
rthumb 9.84175 -33.7144
lclavicle 4.56211e-014 -1.35174e-014
lhumerus -35.4903 6.61534 80.3886
lradius 30.1012
lwrist 11.523
lhand -18.9391 -4.26145
lfingers 7.12502
lthumb 7.36396 25.5904
rfemur -35.469 -4.82587 20.0731
rtibia 41.0353
rfoot -10.7714 -17.5521
rtoes -4.42198
lfemur 8.178 -1.83752 -20.1528
ltibia 39.9532
lfoot 30.4271 -3.57726
ltoes -13.9153
212
root 0.905714 17.649 -6.65646 5.9843 7.08376 2.53084
lowerback 6.8568 -2.20669 -4.34336
upperback -0.875499 -3.17563 3.01054
thorax -4.35278 -1.4332 5.91982
lowerneck -20.7997 -0.592635 4.32589
upperneck 20.7851 -0.64825 -6.31025
head 10.0121 -0.718091 -3.04991
rclavicle 2.93207e-014 7.15625e-015
rhumerus -52.1381 -25.6844 -50.9725
rradius 15.0162
rwrist 11.1194
rhand -16.2522 -4.06464
rfingers 7.12502
rthumb 9.95685 -33.8092
lclavicle 2.93207e-014 7.15625e-015
lhumerus -35.4621 6.066 80.7535
lradius 30.0154
lwrist 12.0439
lhand -18.7644 -3.91871
lfingers 7.12502
lthumb 7.53259 25.9272
rfemur -33.866 -4.80301 20.9755
rtibia 40.826
rfoot -11.4001 -17.6388
rtoes -3.71173
lfemur 6.22306 -1.17775 -19.119
ltibia 43.8135
lfoot 28.4693 -3.36839
ltoes -13.5699
213
root 0.9057 17.6811 -6.36783 5.57421 7.06513 1.52812
lowerback 6.92177 -2.05729 -3.34636
upperback -0.801956 -2.88059 3.26563
thorax -4.3853 -1.30811 5.59559
lowerneck -20.8137 -0.651191 4.30828
upperneck 20.8681 -0.698474 -6.40237
head 10.0407 -0.753822 -3.0895
rclavicle -8.44835e-015 6.36111e-015
rhumerus -51.8173 -25.7114 -51.4074
rradius 15.0407
rwrist 10.9476
rhand -16.1349 -4.19239
rfingers 7.12502
rthumb 10.07 -33.9315
lclavicle -8.44835e-015 6.36111e-015
lhumerus -35.4555 5.47069 81.1254
lradius 29.954
lwrist 12.4125
lhand -18.3895 -3.58548
lfingers 7.12502
lthumb 7.89441 26.2471
rfemur -32.1992 -4.6807 22.126
rtibia 40.4183
rfoot -11.9335 -17.8403
rtoes -3.10189
lfemur 4.21838 -0.485269 -17.8208
ltibia 47.5256
lfoot 25.4849 -3.03568
ltoes -13.6683
214
root 0.906185 17.7119 -6.08152 5.19747 7.05579 0.378081
lowerback 6.96923 -1.90749 -2.18444
upperback -0.746243 -2.56816 3.55209
thorax -4.42746 -1.17719 5.20737
lowerneck -20.8243 -0.71475 4.30237
upperneck 20.9489 -0.754087 -6.51527
head 10.0675 -0.793587 -3.13923
rclavicle -6.04305e-014 7.95139e-015
rhumerus -51.3974 -25.5564 -52.084
rradius 15.125
rwrist 10.6193
rhand -16.0771 -4.17024
rfingers 7.12502
rthumb 10.1257 -33.9066
lclavicle -6.04305e-014 7.95139e-015
lhumerus -35.4588 4.89925 81.4749
lradius 29.9179
lwrist 12.5989
lhand -17.8139 -3.33375
lfingers 7.12502
lthumb 8.44991 26.4772
rfemur -30.5079 -4.5238 23.4345
rtibia 39.8435
rfoot -12.3815 -18.0694
rtoes -2.60053
lfemur 2.14772 0.203298 -16.3656
ltibia 51.0226
lfoot 22.0993 -2.64248
ltoes -13.4147
215
root 0.906869 17.741 -5.79771 4.87779 7.04663 -0.797984
lowerback 7.00344 -1.75878 -0.992248
upperback -0.720157 -2.2532 3.83993
thorax -4.48608 -1.04495 4.80274
lowerneck -20.8467 -0.770079 4.30402
upperneck 21.0246 -0.802523 -6.6225
head 10.0949 -0.828894 -3.18734
rclavicle -4.87022e-015 1.27222e-014
rhumerus -50.8781 -25.2014 -52.9922
rradius 15.2672
rwrist 10.1434
rhand -16.0734 -4.06669
rfingers 7.12502
rthumb 10.1293 -33.8029
lclavicle -4.87022e-015 1.27222e-014
lhumerus -35.511 4.40333 81.7749
lradius 29.9209
lwrist 12.5895
lhand -17.1029 -3.21313
lfingers 7.12502
lthumb 9.13607 26.569
rfemur -28.8346 -4.36802 24.774
rtibia 39.1518
rfoot -12.7712 -18.2853
rtoes -2.20616
lfemur 0.0033166 0.87945 -14.8923
ltibia 54.2419
lfoot 18.6334 -2.2142
ltoes -13.1506
216
root 0.907366 17.7685 -5.51603 4.61501 7.02332 -1.88134
lowerback 7.02535 -1.6082 0.0951283
upperback -0.712287 -1.94502 4.10068
thorax -4.54493 -0.914066 4.42956
lowerneck -20.8357 -0.816117 4.2934
upperneck 21.0716 -0.845478 -6.68342
head 10.1067 -0.856649 -3.21463
rclavicle -1.74931e-014 1.59028e-015
rhumerus -50.2442 -24.6067 -54.16
rradius 15.4856
rwrist 9.4837
rhand -16.1188 -3.82282
rfingers 7.12502
rthumb 10.0856 -33.5611
lclavicle -1.74931e-014 1.59028e-015
lhumerus -35.6184 4.02317 82.0143
lradius 29.9814
lwrist 12.4414
lhand -16.2986 -3.22245
lfingers 7.12502
lthumb 9.91213 26.5242
rfemur -27.1988 -4.22274 26.015
rtibia 38.4085
rfoot -13.132 -18.5058
rtoes -1.94074
lfemur -2.18847 1.53707 -13.5471
ltibia 57.133
lfoot 15.4011 -1.74715
ltoes -12.7549
217
root 0.907966 17.7941 -5.23662 4.42456 6.97992 -2.73241
lowerback 7.03566 -1.45119 0.939517
upperback -0.726256 -1.65155 4.29424
thorax -4.60605 -0.785708 4.12509
lowerneck -20.8332 -0.844958 4.28691
upperneck 21.1161 -0.876925 -6.70126
head 10.12 -0.873598 -3.22564
rclavicle 2.76311e-014 -1.43125e-014
rhumerus -49.529 -23.8409 -55.4924
rradius 15.7602
rwrist 8.7248
rhand -16.203 -3.51912
rfingers 7.12502
rthumb 10.0044 -33.2613
lclavicle 2.76311e-014 -1.43125e-014
lhumerus -35.8008 3.74998 82.1917
lradius 30.1097
lwrist 12.2271
lhand -15.4544 -3.36177
lfingers 7.12502
lthumb 10.7265 26.3444
rfemur -25.6323 -4.11117 27.002
rtibia 37.6745
rfoot -13.4868 -18.7261
rtoes -1.78393
lfemur -4.42033 2.15475 -12.5103
ltibia 59.6645
lfoot 12.5452 -1.20061
ltoes -11.9925
218
root 0.908201 17.8173 -4.95872 4.29254 6.92507 -3.30936
lowerback 7.03442 -1.29003 1.48697
upperback -0.74983 -1.38174 4.41304
thorax -4.65775 -0.663245 3.91226
lowerneck -20.8039 -0.845029 4.3162
upperneck 21.1142 -0.881639 -6.71515
head 10.1132 -0.874496 -3.23555
rclavicle -2.38542e-014 1.59028e-014
rhumerus -48.7428 -22.8995 -56.9814
rradius 16.12
rwrist 7.8108
rhand -16.3122 -3.26422
rfingers 7.12502
rthumb 9.89897 -33.0115
lclavicle -2.38542e-014 1.59028e-014
lhumerus -36.0577 3.56961 82.3135
lradius 30.3067
lwrist 12.0526
lhand -14.6299 -3.59819
lfingers 7.12502
lthumb 11.5217 26.0651
rfemur -24.136 -4.02042 27.6875
rtibia 36.9969
rfoot -13.8751 -18.9487
rtoes -1.70084
lfemur -6.65406 2.70109 -11.844
ltibia 61.8319
lfoot 9.98982 -0.56059
ltoes -10.9537
